<svg xmlns="http://www.w3.org/2000/svg" viewBox="0 0 24 24" fill="#FFD700" width="18px" height="18px">
  <path d="M12 2C6.48 2 2 6.48 2 12s4.48 10 10 10 10-4.48 10-10S17.52 2 12 2zm1.88 13.32h-1.55v1.55c0 .41-.34.75-.75.75s-.75-.34-.75-.75v-1.55h-1.6c-.41 0-.75-.34-.75-.75s.34-.75.75-.75h1.6v-1.98h-1.6c-.41 0-.75-.34-.75-.75s.34-.75.75-.75h1.6V8.12h1.55V6.57c0-.41.34-.75.75-.75s.75.34.75.75v1.55h1.6c.41 0 .75.34.75.75s-.34.75-.75.75h-1.6v1.98h1.6c.41 0 .75.34.75.75s-.34.75-.75.75h-1.6v2.17z"/>
  <path d="M0 0h24v24H0z" fill="none"/>
</svg>